<?xml version="1.0" encoding="utf-8"?>
<!-- Generator: Adobe Illustrator 16.0.0, SVG Export Plug-In . SVG Version: 6.00 Build 0)  -->
<!DOCTYPE svg PUBLIC "-//W3C//DTD SVG 1.1//EN" "http://www.w3.org/Graphics/SVG/1.1/DTD/svg11.dtd">
<svg version="1.1" id="icons" xmlns="http://www.w3.org/2000/svg" xmlns:xlink="http://www.w3.org/1999/xlink" x="0px" y="0px"
	 width="64px" height="64px" viewBox="0 0 64 64" enable-background="new 0 0 64 64" xml:space="preserve">
<g>
	<g>
		<path fill="#FFCE54" d="M55.152,27.998c0,4.979-4.03,9-9,9s-9-4.021-9-9c0-4.971,4.03-9,9-9S55.152,23.027,55.152,27.998z
			 M52.152,27.998c0-3.311-2.689-6-6-6c-3.31,0-6,2.689-6,6c0,3.319,2.69,6,6,6C49.463,33.998,52.152,31.317,52.152,27.998z"/>
	</g>
	<g>
		<path fill="#E6E9ED" d="M46.152,21.998c3.311,0,6,2.689,6,6c0,3.319-2.689,6-6,6c-3.31,0-6-2.681-6-6
			C40.152,24.688,42.843,21.998,46.152,21.998z"/>
	</g>
	<g>
		<polygon fill="#E6E9ED" points="63,47.998 63,50.998 57,50.998 57,47.998 60,47.998 		"/>
	</g>
	<g>
		<path fill="#DA4453" d="M55,46.998c0-1.101-0.45-2.091-1.16-2.82l6.16,0.82v3h-3h-2.13C54.96,47.678,55,47.348,55,46.998z"/>
	</g>
	<g>
		<path fill="#656D78" d="M55,46.998c0,0.35-0.04,0.68-0.13,1c-0.44,1.729-2.01,3-3.87,3s-3.43-1.271-3.87-3
			c-0.09-0.32-0.13-0.65-0.13-1c0-1.48,0.8-2.771,1.99-3.461H49c0.58-0.34,1.271-0.539,2-0.539c1.11,0,2.11,0.449,2.83,1.18h0.01
			C54.55,44.907,55,45.897,55,46.998z"/>
	</g>
	<g>
		<path fill="#656D78" d="M44,50.998h-8v-3h5C41,49.657,42.34,50.998,44,50.998z"/>
	</g>
	<g>
		<path fill="#DA4453" d="M36.021,41.808l12.97,1.729c-1.19,0.69-1.99,1.98-1.99,3.461c0,0.35,0.04,0.68,0.13,1H41h-5v-6.03
			L36.021,41.808z"/>
	</g>
	<g>
		<path fill="#ED5565" d="M20.45,40.998H30l6.021,0.81L36,41.968v6.03v3H14.01c2.21,0,4-1.79,4-4c0-1.101-0.449-2.101-1.17-2.83
			L20.45,40.998z"/>
	</g>
	<g>
		<polygon fill="#DA4453" points="30,36.998 30,40.998 20.45,40.998 25.01,36.998 		"/>
	</g>
	<g>
		<path fill="#656D78" d="M16.84,44.168c0.721,0.729,1.17,1.729,1.17,2.83c0,2.21-1.79,4-4,4s-4-1.79-4-4c0-2.211,1.79-4,4-4
			C15.11,42.998,16.11,43.447,16.84,44.168z"/>
	</g>
	<g>
		<path fill="#E6E9ED" d="M17.01,35.998v4l-3,3c-2.21,0-4,1.789-4,4h-2v-11H17.01z"/>
	</g>
</g>
<g>
	<g>
		<g>
			<path d="M50.998,51.998c-2.757,0-5-2.243-5-5s2.243-5,5-5s5,2.243,5,5S53.755,51.998,50.998,51.998z M50.998,43.998
				c-1.654,0-3,1.346-3,3s1.346,3,3,3s3-1.346,3-3S52.652,43.998,50.998,43.998z"/>
		</g>
		<g>
			<path d="M14.007,51.998c-2.757,0-5-2.243-5-5s2.243-5,5-5s5,2.243,5,5S16.764,51.998,14.007,51.998z M14.007,43.998
				c-1.654,0-3,1.346-3,3s1.346,3,3,3s3-1.346,3-3S15.661,43.998,14.007,43.998z"/>
		</g>
		<g>
			<path d="M49,44.531c-0.044,0-0.088-0.003-0.133-0.009l-18.998-2.533c-0.548-0.073-0.933-0.576-0.859-1.123
				c0.073-0.548,0.568-0.929,1.123-0.859l18.998,2.533c0.548,0.073,0.933,0.576,0.859,1.123C49.923,44.166,49.494,44.531,49,44.531z
				"/>
		</g>
		<g>
			<path d="M59.999,45.998c-0.044,0-0.088-0.003-0.133-0.009l-6.17-0.822c-0.548-0.073-0.933-0.576-0.859-1.123
				c0.073-0.548,0.572-0.932,1.123-0.859l6.17,0.822c0.548,0.073,0.933,0.576,0.859,1.123
				C60.922,45.633,60.493,45.998,59.999,45.998z"/>
		</g>
		<g>
			<path d="M30.001,41.998c-0.553,0-1-0.447-1-1v-4c0-0.553,0.447-1,1-1s1,0.447,1,1v4C31.001,41.551,30.554,41.998,30.001,41.998z"
				/>
		</g>
		<g>
			<path d="M47.125,48.998H35.999c-0.553,0-1-0.447-1-1s0.447-1,1-1h11.126c0.553,0,1,0.447,1,1S47.678,48.998,47.125,48.998z"/>
		</g>
		<g>
			<path d="M30.001,37.998h-4.994c-0.553,0-1-0.447-1-1s0.447-1,1-1h4.994c0.553,0,1,0.447,1,1S30.554,37.998,30.001,37.998z"/>
		</g>
		<g>
			<path d="M16.834,45.17c-0.277,0-0.554-0.115-0.752-0.341c-0.364-0.415-0.322-1.047,0.093-1.411l8.173-7.172
				c0.414-0.362,1.046-0.323,1.411,0.093c0.364,0.415,0.322,1.047-0.093,1.411l-8.173,7.172
				C17.304,45.088,17.068,45.17,16.834,45.17z"/>
		</g>
		<g>
			<path d="M14.007,43.998c-0.256,0-0.512-0.098-0.707-0.293c-0.391-0.391-0.391-1.023,0-1.414l2.999-3
				c0.391-0.391,1.023-0.391,1.414,0s0.391,1.023,0,1.414l-2.999,3C14.519,43.9,14.263,43.998,14.007,43.998z"/>
		</g>
		<g>
			<path d="M10.007,47.998H8.006c-0.553,0-1-0.447-1-1s0.447-1,1-1h2.001c0.553,0,1,0.447,1,1S10.56,47.998,10.007,47.998z"/>
		</g>
		<g>
			<path d="M17.006,40.998c-0.553,0-1-0.447-1-1v-4c0-0.553,0.447-1,1-1s1,0.447,1,1v4C18.006,40.551,17.559,40.998,17.006,40.998z"
				/>
		</g>
		<g>
			<path d="M17.006,36.998h-9c-0.553,0-1-0.447-1-1s0.447-1,1-1h9c0.553,0,1,0.447,1,1S17.559,36.998,17.006,36.998z"/>
		</g>
		<g>
			<path d="M8.006,47.998c-0.553,0-1-0.447-1-1v-11c0-0.553,0.447-1,1-1s1,0.447,1,1v11C9.006,47.551,8.559,47.998,8.006,47.998z"/>
		</g>
		<g>
			<path d="M35.999,52.002c-0.553,0-1-0.447-1-1v-9.035c0-0.553,0.447-1,1-1s1,0.447,1,1v9.035
				C36.999,51.555,36.552,52.002,35.999,52.002z"/>
		</g>
		<g>
			<path d="M44,51.998c-2.206,0-4-1.794-4-4c0-0.553,0.447-1,1-1s1,0.447,1,1c0,1.103,0.897,2,2,2c0.553,0,1,0.447,1,1
				S44.553,51.998,44,51.998z"/>
		</g>
		<g>
			<path d="M62.999,51.998h-6.001c-0.553,0-1-0.447-1-1v-3c0-0.553,0.447-1,1-1h6.001c0.553,0,1,0.447,1,1v3
				C63.999,51.551,63.552,51.998,62.999,51.998z M57.998,49.998h4.001v-1h-4.001V49.998z"/>
		</g>
		<g>
			<path d="M59.998,48.998c-0.553,0-1-0.447-1-1v-3c0-0.553,0.447-1,1-1s1,0.447,1,1v3C60.998,48.551,60.551,48.998,59.998,48.998z"
				/>
		</g>
		<g>
			<path d="M56.998,48.998H54.87c-0.553,0-1-0.447-1-1s0.447-1,1-1h2.128c0.553,0,1,0.447,1,1S57.551,48.998,56.998,48.998z"/>
		</g>
		<g>
			<path d="M30.128,41.998h-9.122c-0.553,0-1-0.447-1-1s0.447-1,1-1h9.122c0.553,0,1,0.447,1,1S30.681,41.998,30.128,41.998z"/>
		</g>
		<g>
			<path d="M14.037,47.998c-0.553,0-1.005-0.447-1.005-1s0.442-1,0.994-1h0.011c0.552,0,1,0.447,1,1S14.589,47.998,14.037,47.998z"
				/>
		</g>
		<g>
			<path d="M51.029,47.998c-0.553,0-1.005-0.447-1.005-1s0.442-1,0.994-1h0.011c0.552,0,1,0.447,1,1S51.581,47.998,51.029,47.998z"
				/>
		</g>
		<g>
			<path d="M31.003,44.998h-7.997c-0.553,0-1-0.447-1-1s0.447-1,1-1h7.997c0.553,0,1,0.447,1,1S31.556,44.998,31.003,44.998z"/>
		</g>
		<g>
			<path d="M28,47.998h-1.991c-0.553,0-1-0.447-1-1s0.447-1,1-1H28c0.553,0,1,0.447,1,1S28.553,47.998,28,47.998z"/>
		</g>
	</g>
	<g>
		<path d="M63,51.998H1c-0.553,0-1-0.447-1-1s0.447-1,1-1h62c0.553,0,1,0.447,1,1S63.553,51.998,63,51.998z"/>
	</g>
	<g>
		<path d="M5.001,46.998H2.002c-0.553,0-1-0.447-1-1s0.447-1,1-1h2.999c0.553,0,1,0.447,1,1S5.554,46.998,5.001,46.998z"/>
	</g>
	<g>
		<path d="M5,43.998H1c-0.553,0-1-0.447-1-1s0.447-1,1-1h4c0.553,0,1,0.447,1,1S5.553,43.998,5,43.998z"/>
	</g>
	<g>
		<path d="M5,40.998H3.002c-0.553,0-1-0.447-1-1s0.447-1,1-1H5c0.553,0,1,0.447,1,1S5.553,40.998,5,40.998z"/>
	</g>
	<g>
		<path d="M3.999,37.998H1c-0.553,0-1-0.447-1-1s0.447-1,1-1h2.999c0.553,0,1,0.447,1,1S4.552,37.998,3.999,37.998z"/>
	</g>
	<g>
		<path d="M46,37.998c-5.514,0-10-4.486-10-10s4.486-10,10-10s10,4.486,10,10S51.514,37.998,46,37.998z M46,19.998
			c-4.411,0-8,3.589-8,8s3.589,8,8,8s8-3.589,8-8S50.411,19.998,46,19.998z"/>
	</g>
	<g>
		<path d="M46,34.998c-3.859,0-7-3.141-7-7s3.141-7,7-7s7,3.141,7,7S49.859,34.998,46,34.998z M46,22.998c-2.757,0-5,2.243-5,5
			s2.243,5,5,5s5-2.243,5-5S48.757,22.998,46,22.998z"/>
	</g>
	<g>
		<path d="M46,28.996c-0.553,0-1-0.447-1-1v-1.998c0-0.553,0.447-1,1-1s1,0.447,1,1v1.998C47,28.549,46.553,28.996,46,28.996z"/>
	</g>
	<g>
		<path d="M45.999,19.998c-2.206,0-4-1.794-4-4s1.794-4,4-4s4,1.794,4,4S48.205,19.998,45.999,19.998z M45.999,13.998
			c-1.103,0-2,0.897-2,2s0.897,2,2,2s2-0.897,2-2S47.102,13.998,45.999,13.998z"/>
	</g>
	<g>
		<path d="M45.999,19.998c-0.553,0-1-0.447-1-1v-2c0-0.553,0.447-1,1-1s1,0.447,1,1v2C46.999,19.551,46.552,19.998,45.999,19.998z"
			/>
	</g>
</g>
</svg>
