<?xml version="1.0" standalone="no"?>
<!DOCTYPE svg PUBLIC "-//W3C//DTD SVG 20010904//EN"
 "http://www.w3.org/TR/2001/REC-SVG-20010904/DTD/svg10.dtd">
<svg version="1.0" xmlns="http://www.w3.org/2000/svg"
 width="700.000000pt" height="700.000000pt" viewBox="0 0 700.000000 700.000000"
 preserveAspectRatio="xMidYMid meet">
<metadata>
Created by potrace 1.14, written by Peter Selinger 2001-2017
</metadata>
<g transform="translate(0.000000,700.000000) scale(0.100000,-0.100000)"
fill="#000000" stroke="none">
<path d="M4920 5673 c-72 -21 -122 -48 -173 -93 -169 -149 -201 -375 -81 -571
l23 -36 -42 -13 c-160 -48 -398 -230 -502 -385 -22 -33 -43 -62 -47 -65 -4 -3
-27 -49 -52 -102 -122 -259 -140 -535 -54 -808 51 -161 141 -305 272 -436 205
-204 464 -314 743 -317 197 -2 338 29 508 113 133 65 247 153 350 271 30 32
139 195 141 208 0 3 13 32 28 64 74 161 104 369 83 562 -10 81 -42 216 -67
273 -119 275 -296 462 -557 588 -62 31 -113 58 -113 61 0 2 9 16 20 30 33 42
62 134 65 209 11 201 -117 385 -305 441 -68 21 -181 24 -240 6z m219 -235 c77
-46 117 -123 108 -208 -6 -58 -27 -99 -69 -139 l-33 -31 -6 67 c-5 58 -10 70
-38 95 -36 32 -76 36 -121 13 -38 -20 -58 -58 -58 -114 -1 -24 -3 -46 -6 -49
-10 -9 -64 48 -81 84 -51 108 0 246 109 295 57 25 140 20 195 -13z"/>
<path d="M837 3165 c-17 -5 -39 -22 -51 -38 -20 -27 -20 -38 -20 -661 0 -690
-2 -672 56 -702 16 -8 57 -14 100 -14 l73 0 19 -60 c10 -33 31 -80 47 -105 16
-25 29 -48 29 -50 0 -3 -225 -5 -501 -5 -440 0 -505 -2 -535 -16 -70 -33 -68
-146 4 -184 31 -17 203 -18 3446 -19 3370 0 3413 0 3444 19 18 11 37 32 42 46
6 14 10 110 10 213 0 179 -1 190 -23 222 -28 42 -46 47 -189 48 l-118 1 0 129
c0 124 -1 131 -25 159 -26 31 -43 37 -130 48 -27 3 -61 7 -75 9 -68 10 -180
25 -220 30 -25 3 -63 8 -85 11 -22 3 -51 7 -65 8 -109 13 -141 20 -151 32 -20
25 -131 82 -192 99 -102 29 -237 24 -336 -14 -29 -11 -62 -18 -74 -16 -12 2
-78 11 -147 20 -69 9 -136 18 -150 20 -14 2 -50 7 -80 10 -30 3 -66 8 -80 10
-78 11 -144 20 -217 29 -68 9 -200 27 -223 31 -14 2 -45 6 -70 9 -25 3 -76 10
-115 15 -38 6 -92 13 -120 16 -27 4 -61 8 -75 10 -14 2 -63 9 -110 15 -136 17
-164 21 -190 25 -14 2 -81 11 -150 20 -69 9 -134 18 -145 20 -11 2 -28 4 -37
4 -17 1 -18 17 -18 186 0 201 -6 229 -53 254 -19 10 -92 13 -314 13 -158 0
-298 -1 -310 -1 -19 -1 -74 -45 -243 -195 -88 -77 -187 -164 -208 -182 -13
-10 -36 -30 -51 -44 -15 -14 -58 -52 -96 -86 -39 -34 -116 -102 -173 -152
l-103 -90 -44 25 -45 25 99 97 c54 54 104 107 110 119 7 14 11 105 11 267 0
271 -4 292 -61 316 -36 14 -1028 19 -1072 4z m4250 -1542 c4 -10 17 -35 30
-56 l24 -38 -173 1 c-95 1 -192 6 -215 12 -40 10 -123 70 -123 89 0 5 94 9
225 9 206 0 226 -2 232 -17z m1038 -35 l0 -53 -53 -3 c-28 -2 -52 -1 -52 2 0
2 14 27 31 55 22 35 39 51 53 51 19 0 22 -5 21 -52z"/>
<path d="M101 3059 c-62 -8 -105 -56 -98 -108 7 -51 15 -67 45 -88 23 -15 53
-18 217 -18 213 -2 244 5 267 59 18 44 18 56 3 92 -24 59 -45 65 -227 67 -89
1 -183 -1 -207 -4z"/>
<path d="M315 2732 c-76 -12 -115 -86 -84 -156 22 -48 72 -62 217 -61 146 2
173 11 197 70 22 50 6 101 -40 131 -19 13 -54 17 -148 18 -67 1 -131 0 -142
-2z"/>
<path d="M73 2398 c-44 -12 -77 -67 -70 -115 7 -39 47 -89 75 -91 82 -6 492
-2 512 6 77 30 85 142 14 189 -25 16 -53 18 -264 19 -129 0 -249 -3 -267 -8z"/>
<path d="M168 2064 c-61 -32 -75 -110 -29 -164 l29 -35 197 -3 c134 -2 207 1
226 8 81 34 84 155 6 193 -44 22 -389 22 -429 1z"/>
</g>
</svg>
